<svg id="レイヤー_16" data-name="レイヤー 16" xmlns="http://www.w3.org/2000/svg" viewBox="0 0 2344.1 743.1"><defs><style>.cls-1{fill:#0539bf;}.cls-2{fill:#000f3a;}</style></defs><path class="cls-1" d="M407.2,421.6l26.2-35.7a24.3,24.3,0,0,0,0-28.8l-26.2-35.6-.2-.3-37.7-51.1-37-50.3-29.2-39.7a24.5,24.5,0,0,0-19.6-9.9H194.6c-20,0-31.5,22.7-19.6,38.7L284,357.1a24.5,24.5,0,0,1,0,28.9L175,534.1c-11.9,16.1-.4,38.8,19.6,38.8h88.9a24.5,24.5,0,0,0,19.6-9.9l29.2-39.8,37-50.2L407,421.8Z"/><path class="cls-2" d="M444.8,314.5,551,170.2H386.7c-19.9,0-31.4,22.7-19.6,38.7Z"/><path class="cls-2" d="M444.8,428.6,367.1,534.1c-11.8,16.1-.3,38.8,19.6,38.8H551Z"/><path class="cls-2" d="M928.3,410.5c-5.8,3.1-12.8,4.6-21.2,4.6a41.7,41.7,0,0,1-13.6-2.2,41.1,41.1,0,0,1-11.9-6.3,35.3,35.3,0,0,1-8.7-9.4,28.9,28.9,0,0,1-4-12.2H984.8a60.8,60.8,0,0,0,.3-6.1v-6.5c0-13.7-1.9-25.9-5.9-36.6a81.1,81.1,0,0,0-16.5-27.3,70.4,70.4,0,0,0-25.4-17.1,85.3,85.3,0,0,0-32.4-6,95.2,95.2,0,0,0-34.1,6.1,83.8,83.8,0,0,0-27.3,17.2,80.6,80.6,0,0,0-18.3,27,91.5,91.5,0,0,0-6.7,35.4q0,20.3,6.9,36a75.2,75.2,0,0,0,19,26.5,82.4,82.4,0,0,0,28,16.4,103.8,103.8,0,0,0,34.1,5.6c16.2,0,30.5-3,42.8-8.8A73.1,73.1,0,0,0,979,421.6l-36.6-23.2A40.6,40.6,0,0,1,928.3,410.5Zm-56.2-70a33.5,33.5,0,0,1,7.7-9.8,36.2,36.2,0,0,1,11.3-6.6,39.7,39.7,0,0,1,14.1-2.4c10.5,0,18.3,3,23.6,9a31.9,31.9,0,0,1,7.9,21.5H868.9A28.4,28.4,0,0,1,872.1,340.5Z"/><path class="cls-2" d="M1768.9,307.9a84.5,84.5,0,0,0-28.3-16.7,104,104,0,0,0-68.5,0,84.5,84.5,0,0,0-28.3,16.7,80.5,80.5,0,0,0-19.1,26.6c-4.7,10.5-7,22.3-7,35.4s2.3,24.8,7,35.4a81.1,81.1,0,0,0,19.1,27,87.4,87.4,0,0,0,28.3,17.2,99.2,99.2,0,0,0,68.5,0,87.4,87.4,0,0,0,28.3-17.2,80.2,80.2,0,0,0,19.3-27c4.7-10.6,7-22.4,7-35.4s-2.3-24.9-7-35.4A79.6,79.6,0,0,0,1768.9,307.9ZM1742.1,385a41.9,41.9,0,0,1-7.2,13.3,38.2,38.2,0,0,1-44.7,9.5,36.7,36.7,0,0,1-11.8-9.5,40.3,40.3,0,0,1-7.3-13.3,49.1,49.1,0,0,1-2.4-15.1,48.2,48.2,0,0,1,2.4-15.1,38.1,38.1,0,0,1,7.1-13,35.7,35.7,0,0,1,11.7-9.2,37.6,37.6,0,0,1,52,22.2,45.7,45.7,0,0,1,2.6,15.1A49.1,49.1,0,0,1,1742.1,385Z"/><path class="cls-2" d="M2168,335.8a78,78,0,0,0-16.5-27.3,69.5,69.5,0,0,0-25.4-17.1,85,85,0,0,0-32.4-6,94.2,94.2,0,0,0-34,6.1,81.8,81.8,0,0,0-27.3,17.2,80.6,80.6,0,0,0-18.3,27,89.7,89.7,0,0,0-6.8,35.4q0,20.3,6.9,36a75.2,75.2,0,0,0,19,26.5,82.9,82.9,0,0,0,28.1,16.4,103.2,103.2,0,0,0,34,5.6c16.3,0,30.6-3,42.9-8.8a74.4,74.4,0,0,0,29.7-25.2l-36.6-23.2a41.8,41.8,0,0,1-14.2,12.1c-5.7,3.1-12.8,4.6-21.2,4.6a41.7,41.7,0,0,1-13.6-2.2,42.4,42.4,0,0,1-11.9-6.3,33.4,33.4,0,0,1-8.6-9.4,29,29,0,0,1-4.1-12.2h116a60.8,60.8,0,0,0,.3-6.1v-6.5Q2174,351.9,2168,335.8Zm-110.3,16.4a27.1,27.1,0,0,1,3.3-11.7,30.4,30.4,0,0,1,7.7-9.8,35.7,35.7,0,0,1,11.2-6.6,40.1,40.1,0,0,1,14.1-2.4c10.5,0,18.4,3,23.6,9a31.4,31.4,0,0,1,7.9,21.5Z"/><polygon class="cls-2" points="1141.8 330.1 1142.1 329.7 1171.7 290.6 1141.8 290.6 1141.8 290.6 1141 290.6 1141 290.6 1112.3 290.6 1082.1 333.3 1052.2 290.6 990.9 290.6 1048.7 366.7 984.8 450.5 1045.8 450.5 1081.1 401.3 1115.5 450.5 1177.5 450.5 1114.2 366.7 1141.8 330.1"/><path class="cls-2" d="M1937.3,307.3h-.7c-4.5-5.3-10.8-10.3-18.9-14.7s-18.1-6.8-29.9-6.8a71.2,71.2,0,0,0-31.3,6.8,68.7,68.7,0,0,0-23.7,18.3,81,81,0,0,0-15.1,26.8,97,97,0,0,0-5.3,31.9,101.7,101.7,0,0,0,5.1,32.1,81.9,81.9,0,0,0,15,27.2,73.4,73.4,0,0,0,23.9,18.7c9.4,4.7,20.1,7.1,32.1,7.1a71.2,71.2,0,0,0,30.3-6.6c9.5-4.4,16.9-10.6,22-18.8h.7v20.9h48.4V248.5h-52.6Zm-.5,77.7a43.6,43.6,0,0,1-7.7,13.2,39.5,39.5,0,0,1-12,9.3A35.3,35.3,0,0,1,1901,411a35.7,35.7,0,0,1-16.4-3.5,39.1,39.1,0,0,1-11.9-9.3,39.8,39.8,0,0,1-7.2-13.3,50.9,50.9,0,0,1-2.4-15.3,48.7,48.7,0,0,1,2.4-15.1,36.5,36.5,0,0,1,19.1-22.1,35.7,35.7,0,0,1,16.4-3.6,35.3,35.3,0,0,1,16.1,3.6,36.6,36.6,0,0,1,12,9.3,41.9,41.9,0,0,1,7.7,13.1,44.2,44.2,0,0,1,2.7,15.1A43.3,43.3,0,0,1,1936.8,385Z"/><path class="cls-2" d="M785.9,306.8a53.5,53.5,0,0,0-18.1-15q-11.2-5.7-27.3-5.7a54.4,54.4,0,0,0-15.8,2.2,66.3,66.3,0,0,0-13.6,5.8,43.7,43.7,0,0,0-10.9,8.5,56.8,56.8,0,0,0-7.6,10.1H692V290.6H640.9V450.5h53V363.8a46.4,46.4,0,0,1,1.8-13,31.7,31.7,0,0,1,5.3-11.1,25.8,25.8,0,0,1,8.8-7.6,27,27,0,0,1,12.4-2.7,23,23,0,0,1,11.7,2.7,19.7,19.7,0,0,1,7.2,7.4,37.1,37.1,0,0,1,3.7,10.8,74.4,74.4,0,0,1,1.1,12.8v87.4h53V351.6a96.4,96.4,0,0,0-3-23.8A60,60,0,0,0,785.9,306.8Z"/><path class="cls-2" d="M1584.7,307.4a51.8,51.8,0,0,0-17.9-15.4c-7.3-4-16.5-5.9-27.4-5.9s-22.2,2.4-30.5,7.3a61.5,61.5,0,0,0-20.6,20,48,48,0,0,0-18.8-20.3c-8-4.7-17.8-7-29.3-7a58.5,58.5,0,0,0-16.6,2.2,62.1,62.1,0,0,0-13.6,5.9,42.3,42.3,0,0,0-10.4,8.6,59.9,59.9,0,0,0-7.3,9.9h-.6V290.6h-51.1V450.5h53V363.8c0-9.7,2.3-17.8,6.9-24.4s11.1-10,19.4-10,13.7,2.7,17.4,8,5.4,12.7,5.4,21.9v91.2h52.7V364.1a50.9,50.9,0,0,1,1.6-13,33.1,33.1,0,0,1,5-11.1,25.4,25.4,0,0,1,8.3-7.7,23.3,23.3,0,0,1,11.7-2.9q7.2,0,11.4,2.7a21,21,0,0,1,6.9,7.3,30,30,0,0,1,3.6,10.7,91.5,91.5,0,0,1,.9,13v87.4h52.7V351.6a92.6,92.6,0,0,0-3-23A65.3,65.3,0,0,0,1584.7,307.4Z"/><polygon class="cls-2" points="1277.5 248.5 1225.8 248.5 1225.8 290.6 1201.9 290.6 1172.3 329.7 1226 329.7 1225.8 450.5 1277.5 450.5 1277.5 413.3 1277.5 380.5 1277.5 329.7 1315 329.7 1315 290.6 1277.5 290.6 1277.5 248.5"/></svg>